<svg width="120" height="120" viewBox="0 0 120 120" fill="none" xmlns="http://www.w3.org/2000/svg">
<path d="M32.1827 21C32.7065 21 33.2095 21.2055 33.5834 21.5724L42.608 30.4276C42.9819 30.7945 43.4849 31 44.0087 31H108C109.105 31 110 31.8954 110 33V83C110 84.1046 109.105 85 108 85H12C10.8954 85 10 84.1046 10 83V23C10 21.8954 10.8954 21 12 21H32.1827Z" fill="#99E7FF"/>
<path d="M10 37C10 35.8954 10.8954 35 12 35H108C109.105 35 110 35.8954 110 37V97C110 98.1046 109.105 99 108 99H12C10.8954 99 10 98.1046 10 97V37Z" fill="url(#paint0_linear_93_85)"/>
<defs>
<linearGradient id="paint0_linear_93_85" x1="60" y1="35" x2="60" y2="99" gradientUnits="userSpaceOnUse">
<stop stop-color="#6DD3F2"/>
<stop offset="1" stop-color="#99E7FF"/>
</linearGradient>
</defs>
</svg>
